<svg width="18" height="17" viewBox="0 0 18 17" fill="none" xmlns="http://www.w3.org/2000/svg">
<path d="M8.02319 0.93515C8.39 0.191904 9.44984 0.191904 9.81666 0.93515L11.6262 4.60164C11.7718 4.89678 12.0534 5.10135 12.3791 5.14868L16.4253 5.73663C17.2455 5.85581 17.5731 6.86378 16.9795 7.44232L14.0517 10.2963C13.816 10.526 13.7084 10.857 13.7641 11.1814L14.4553 15.2113C14.5954 16.0282 13.7379 16.6511 13.0043 16.2654L9.38526 14.3628C9.09394 14.2097 8.7459 14.2097 8.45458 14.3628L4.83554 16.2654C4.10191 16.6511 3.24448 16.0282 3.38459 15.2113L4.07577 11.1814C4.13141 10.857 4.02386 10.526 3.78817 10.2963L0.860306 7.44232C0.266789 6.86378 0.5943 5.85581 1.41452 5.73663L5.46073 5.14868C5.78644 5.10135 6.068 4.89678 6.21367 4.60164L8.02319 0.93515Z" fill="#2D2D2D"/>
</svg>
